# xmcd
#
# Track frame offsets:
#	150
#	11716
#	29387
#	48741
#	63090
#	79156
#	94665
#	106880
#	124237
#	145133
#
# Disc length: 2132 seconds
#
# Revision: 0
# Processed by: cddbd v1.5.1PL0 Copyright (c) Steve Scherf et al.
# Submitted via: audiograbber 1.83.01
#
DISCID=8108520a
DTITLE=Parton, Dolly - I Will Always Love You and Other Greatest Hits - Parton, D
DTITLE=olly - I Will Always Love You and Other Greatest Hits
DYEAR=1900
DGENRE=Country
TTITLE0=Why'd You Come In Here Lookin' Like That
TTITLE1=Yellow Roses
TTITLE2=White Limozeen
TTITLE3=Eagle When She Flies
TTITLE4=Romeo
TTITLE5=Rockin' Years (& Ricky Van Shelton)
TTITLE6=To Daddy
TTITLE7=Silver And Gold
TTITLE8=He's Alive
TTITLE9=I Will Always Love You (&Vince Gill)
EXTD=
EXTT0=
EXTT1=
EXTT2=
EXTT3=
EXTT4=
EXTT5=Duet with Ricky Van Shelton
EXTT6=
EXTT7=
EXTT8=
EXTT9=
PLAYORDER=
